<?xml version="1.0" standalone="no"?>
<!DOCTYPE svg PUBLIC "-//W3C//DTD SVG 1.1//EN" "http://www.w3.org/Graphics/SVG/1.1/DTD/svg11.dtd" >
<svg>
<metadata>
Created by FontForge 20120731 at Tue Mar  3 17:02:52 2020
 By ffonts
Copyright (c) 2019 by Vladimir Nikolic. All rights reserved.
</metadata>
<defs>
<font id="OfficialBook-Italic" horiz-adv-x="496" >
  <font-face 
    font-family="Official Book"
    font-weight="400"
    font-style="italic"
    font-stretch="normal"
    units-per-em="1000"
    panose-1="0 0 0 0 0 0 0 0 0 0"
    ascent="750"
    descent="-250"
    x-height="403"
    cap-height="675"
    bbox="14 -232 998 680"
    underline-thickness="50"
    underline-position="-50"
    unicode-range="U+000D-007A"
  />
<missing-glyph horiz-adv-x="264" 
 />
    <glyph glyph-name=".notdef" horiz-adv-x="264" 
 />
    <glyph glyph-name="NULL" horiz-adv-x="0" 
 />
    <glyph glyph-name="NULL" horiz-adv-x="0" 
 />
    <glyph glyph-name="nonmarkingreturn" unicode="&#xd;" horiz-adv-x="264" 
 />
    <glyph glyph-name="space" unicode=" " horiz-adv-x="264" 
 />
    <glyph glyph-name="E" unicode="E" horiz-adv-x="467" 
d="M149 93h296l-13 -93h-390l95 677h390l-13 -93h-296l-26 -181h232l-13 -94h-232l-30 -216v0z" />
    <glyph glyph-name="F" unicode="F" horiz-adv-x="467" 
d="M137 677h391l-13 -93h-297l-26 -181h233l-13 -94h-233l-43 -309h-94l95 677v0z" />
    <glyph glyph-name="G" unicode="G" horiz-adv-x="725" 
d="M389 94q41 0 80.5 13t72.5 37t57 58t33 77h-217l12 90h308q1 -14 -0.5 -29t-3.5 -29q-9 -68 -40.5 -125t-78.5 -98t-107.5 -64.5t-127.5 -23.5q-71 0 -129 26.5t-98 72t-58 107.5t-8 133t45.5 132.5t88.5 107.5t118.5 72t136.5 26q66 0 120 -24t96 -69l-77 -65
q-29 31 -68 48t-84 17q-51 0 -99 -19.5t-86 -52.5t-64 -78t-33 -96t6 -95.5t41.5 -77.5t70.5 -52t93 -19z" />
    <glyph glyph-name="H" unicode="H" horiz-adv-x="587" 
d="M540 677h94l-95 -677h-94l42 303h-305l-42 -303h-94l95 677h94l-40 -284h305l40 284v0z" />
    <glyph glyph-name="I" unicode="I" horiz-adv-x="187" 
d="M142 675h94l-94 -675h-94l94 675v0z" />
    <glyph glyph-name="J" unicode="J" horiz-adv-x="455" 
d="M502 677l-71 -505q-6 -39 -26.5 -70.5t-50.5 -54t-66.5 -34.5t-72.5 -12q-48 0 -89 20t-66 58l86 60q13 -24 30.5 -34.5t46.5 -10.5q19 0 38.5 5t35.5 15.5t27.5 26.5t14.5 37l70 499h93z" />
    <glyph glyph-name="K" unicode="K" horiz-adv-x="559" 
d="M498 677h123l-322 -319l227 -358h-123l-216 341l-47 -341h-94l95 677h94l-43 -302l306 302v0z" />
    <glyph glyph-name="L" unicode="L" horiz-adv-x="419" 
d="M151 93h247l-13 -93h-341l95 677h94l-82 -584v0z" />
    <glyph glyph-name="M" unicode="M" horiz-adv-x="617" 
d="M230 677l111 -442l234 442h94l-95 -677h-94l59 424l-231 -424l-114 424l-59 -424h-93l95 677h93v0z" />
    <glyph glyph-name="N" unicode="N" horiz-adv-x="578" 
d="M536 677h94l-95 -677h-94l-236 498l-69 -498h-94l95 677h94l236 -489l69 489v0z" />
    <glyph glyph-name="O" unicode="O" horiz-adv-x="739" 
d="M661 337q7 51 -6 95.5t-41.5 77.5t-70 52.5t-92.5 19.5t-98 -19.5t-84.5 -52.5t-63 -77.5t-32.5 -95.5t5.5 -95.5t41 -77.5t70.5 -52t93 -19t98 19t84.5 52t63 77.5t32.5 95.5zM464 675q70 0 128 -26.5t97.5 -72.5t57.5 -107.5t8 -131.5t-45 -131.5t-87 -107t-117.5 -72
t-135.5 -26.5t-128 26.5t-97.5 72t-57.5 107t-8 131.5t45 131.5t87 107.5t117.5 72.5t135.5 26.5z" />
    <glyph glyph-name="P" unicode="P" horiz-adv-x="508" 
d="M188 349l54 -2t55 -1q57 0 95.5 28t46.5 88q8 57 -21.5 90t-86.5 33h-110zM344 677q48 0 86.5 -14.5t64 -41.5t36 -66t3.5 -88q-15 -106 -80 -160t-170 -54h-110l-35 -253h-93l95 677h203z" />
    <glyph glyph-name="Q" unicode="Q" horiz-adv-x="757" 
d="M574 167q40 34 67 77t34 93q7 49 -7 94t-43 79.5t-71 55t-91 20.5q-48 0 -96 -19t-87.5 -52t-67 -77t-34.5 -93q-7 -50 5.5 -95t41 -79.5t70 -55t91.5 -20.5q26 0 51.5 5.5t51.5 15.5l-38 61l85 54zM655 32l-84 -55l-37 62q-39 -18 -80 -28.5t-83 -10.5q-69 0 -126.5 29
t-96.5 77t-56.5 111t-8.5 131q10 68 47.5 128.5t92 105.5t120.5 71t133 26q68 0 126 -28.5t98.5 -76t60 -110t9.5 -130.5q-10 -72 -50 -133.5t-100 -109.5z" />
    <glyph glyph-name="R" unicode="R" horiz-adv-x="495" 
d="M180 349l54 -2t55 -1q57 0 95.5 28t46.5 88q8 57 -21.5 90t-86.5 33h-110zM336 677q48 0 86.5 -14.5t64 -41.5t36 -66.5t3.5 -88.5q-13 -94 -67.5 -148.5t-150.5 -63.5l159 -254h-108l-158 253h-35l-35 -253h-93l95 677h203z" />
    <glyph glyph-name="S" unicode="S" horiz-adv-x="467" 
d="M326 588q-18 0 -34.5 -6t-30.5 -16.5t-23 -26t-12 -33.5q-4 -30 13.5 -51.5t46 -40.5t62 -38t61 -43.5t43.5 -56.5t10 -77q-7 -48 -28 -85t-53 -61.5t-72.5 -37.5t-86.5 -13q-29 0 -56 6t-51 18.5t-43 31t-30 44.5q20 13 40.5 26.5t40.5 27.5q6 -17 18 -29t28 -19.5
t34 -11t36 -3.5q45 0 78.5 23.5t40.5 71.5q4 31 -13.5 54t-46 43t-62.5 39.5t-61.5 44t-44 56t-10.5 75.5q6 43 26 76t50 55.5t67.5 33.5t78.5 11q22 0 45 -5t44 -14.5t38.5 -23t29.5 -30.5q-17 -18 -35 -35t-35 -34q-17 24 -44 39t-59 15z" />
    <glyph glyph-name="T" unicode="T" horiz-adv-x="474" 
d="M126 678h411l-13 -93h-158l-82 -585h-94l82 585h-159l13 93v0z" />
    <glyph glyph-name="U" unicode="U" horiz-adv-x="638" 
d="M692 676q-11 -90 -22.5 -178t-24.5 -178q-2 -16 -4 -31.5t-6 -31.5q-14 -60 -42.5 -108t-69.5 -81t-93 -50.5t-112 -17.5q-59 0 -106.5 18t-79.5 51t-47.5 80.5t-10.5 107.5q2 21 4.5 42.5t5.5 42.5q11 84 24 167t25 167h94l-59 -414q-5 -37 6.5 -67.5t35 -52t55 -33.5
t66.5 -12t69.5 12t63.5 33.5t49 52t25 67.5l59 414h95v0z" />
    <glyph glyph-name="V" unicode="V" horiz-adv-x="562" 
d="M532 678h104l-354 -678l-167 677l107 2l99 -415l211 414v0z" />
    <glyph glyph-name="W" unicode="W" horiz-adv-x="930" 
d="M894 678h104l-384 -678l-100 353l-199 -353l-193 678h103l124 -435l130 231l-57 204h102l24 -83l47 83h103l-115 -204l65 -231l246 435v0z" />
    <glyph glyph-name="X" unicode="X" horiz-adv-x="515" 
d="M359 334l122 -334h-107l-84 227l-147 -227h-107l215 334q-33 86 -64 172t-64 172h103l94 -239l156 239h106z" />
    <glyph glyph-name="Y" unicode="Y" horiz-adv-x="493" 
d="M330 282q-10 -71 -19 -141t-19 -141h-97l38 282l-112 395h106l73 -264l150 264h107z" />
    <glyph glyph-name="Z" unicode="Z" horiz-adv-x="578" 
d="M220 94h330l-13 -94h-487l396 588h-328l13 89h485l-396 -583v0z" />
    <glyph glyph-name="a" unicode="a" horiz-adv-x="493" 
d="M261 73q28 0 50.5 11t40 29t28 41.5t14.5 49.5q4 25 0 49t-15.5 42.5t-31 29.5t-46.5 11q-28 0 -52.5 -10.5t-43.5 -28t-31.5 -41.5t-16.5 -51q-3 -26 2.5 -49.5t19.5 -42t34.5 -29.5t47.5 -11zM503 407l-57 -407h-89l5 38q-26 -24 -53 -38t-61 -14q-45 0 -82 17t-62 47
t-35.5 69.5t-4.5 84.5t28 85t55 69.5t74.5 47t87.5 17.5q34 0 57 -14t43 -38l5 36h89z" />
    <glyph glyph-name="b" unicode="b" horiz-adv-x="502" 
d="M395 200q4 27 -1.5 52t-19 43.5t-35 29.5t-50.5 11q-27 0 -49.5 -11t-39.5 -29.5t-27.5 -42.5t-14.5 -49q-4 -26 0.5 -49.5t16.5 -41.5t32 -29t48 -11q25 0 49 10.5t43 28t31.5 40.5t16.5 48zM305 423q46 0 82.5 -17t61.5 -47t35.5 -70t4.5 -85t-28.5 -84.5t-55.5 -69.5
t-74.5 -47t-86.5 -17q-34 0 -57 14t-42 38l-5 -38h-90l95 677h90l-43 -306q26 24 52.5 38t60.5 14z" />
    <glyph glyph-name="c" unicode="c" horiz-adv-x="463" 
d="M387 290q-12 27 -34 44t-54 17q-27 0 -51.5 -11.5t-44 -30.5t-32 -43.5t-15.5 -50.5q-4 -26 1.5 -50.5t19 -44t35 -31t48.5 -11.5q32 0 59.5 17.5t46.5 44.5l71 -45q-37 -45 -85.5 -70t-102.5 -25q-45 0 -82.5 16.5t-62.5 45.5t-36 68.5t-5 84.5t28.5 84.5t55.5 68.5
t75 45.5t87 16.5q54 0 96 -25t66 -70z" />
    <glyph glyph-name="d" unicode="d" horiz-adv-x="493" 
d="M162 210q-4 -27 1 -51.5t18 -43.5t34 -30.5t50 -11.5q28 0 50.5 11t40 29t28 41.5t14.5 49.5q4 25 0 49t-15.5 42.5t-31 29.5t-46.5 11q-26 0 -50 -10t-43.5 -27.5t-32.5 -40.5t-17 -48zM252 -14q-45 0 -82 17t-62 47t-36 69.5t-5 84.5t28.5 85t55.5 70t74.5 47t87.5 17
q34 0 56.5 -14t42.5 -38l43 308h90l-95 -679h-90l5 38q-26 -24 -52.5 -38t-60.5 -14z" />
    <glyph glyph-name="e" unicode="e" horiz-adv-x="476" 
d="M168 149q11 -38 33.5 -54t64.5 -16q37 0 62.5 15.5t47.5 47.5l68 -49q-37 -45 -86.5 -69t-103.5 -24q-44 0 -80.5 17t-62 46t-37 68t-5.5 83t28.5 83t56.5 68t75.5 46t85.5 17q34 0 62 -13t49 -34.5t33.5 -50.5t15.5 -61zM373 302q-11 21 -27.5 33t-42.5 12t-49.5 -10.5
t-41.5 -28t-30.5 -40.5t-17.5 -48z" />
    <glyph glyph-name="f" unicode="f" horiz-adv-x="285" 
d="M298 370l-13 -87h-109l-39 -283h-93l59 420q5 37 20 76t39.5 70t58.5 51t78 20h34l-12 -84h-24q-24 0 -42 -13.5t-30 -34t-19 -43.5t-10 -42l-7 -50h109z" />
    <glyph glyph-name="g" unicode="g" horiz-adv-x="490" 
d="M268 71q27 0 50 11t40 29.5t27.5 42t14.5 48.5q3 25 -1 49t-15.5 42.5t-31 29.5t-46.5 11q-29 0 -53.5 -11.5t-43.5 -30t-31 -43.5t-16 -52q-4 -26 2.5 -49t21 -40t35.5 -27t47 -10zM450 -10q-6 -44 -27 -81t-52 -64t-71 -42.5t-83 -15.5q-66 0 -110.5 36t-59.5 97l85 34
q6 -37 33 -58.5t65 -21.5q51 0 87 33t43 83l6 45q-24 -24 -52 -37.5t-60 -13.5q-46 0 -83 17t-61.5 46.5t-35.5 69.5t-5 85t28.5 85t55.5 70t74.5 47t87.5 17q34 0 56.5 -14t41.5 -38l6 38h90z" />
    <glyph glyph-name="h" unicode="h" 
d="M458 0h-96l28 205q4 25 -2 48.5t-20 41.5t-35 28.5t-47 10.5q-21 0 -40 -7t-34 -19.5t-25.5 -30.5t-13.5 -39l-33 -238h-93l95 679h93l-43 -304q26 23 52.5 36.5t59.5 13.5q44 0 80.5 -18t61 -48.5t35.5 -70.5t5 -83z" />
    <glyph glyph-name="i" unicode="i" horiz-adv-x="194" 
d="M172 546q29 0 40 -12.5t7 -41.5q-5 -29 -19 -41.5t-43 -12.5t-40 12.5t-6 41.5q4 29 18 41.5t43 12.5zM199 408l-57 -408h-93l57 408h93z" />
    <glyph glyph-name="j" unicode="j" horiz-adv-x="197" 
d="M175 548q29 0 39.5 -12.5t6.5 -41.5q-5 -29 -19 -41.5t-43 -12.5t-40 12.5t-6 41.5q4 29 18.5 41.5t43.5 12.5zM201 410l-86 -615h-93l86 615h93z" />
    <glyph glyph-name="k" unicode="k" horiz-adv-x="456" 
d="M357 405h118l-194 -211l138 -194h-123l-127 179l-25 -179h-93l94 675h93l-66 -470l185 200v0z" />
    <glyph glyph-name="l" unicode="l" horiz-adv-x="187" 
d="M143 677h94l-95 -677h-94l95 677v0z" />
    <glyph glyph-name="m" unicode="m" horiz-adv-x="816" 
d="M305 419q49 0 87 -20.5t63 -58.5q38 40 77 59t91 19q44 0 79.5 -18t59.5 -48.5t35 -70t5 -82.5l-27 -199h-97l27 199q4 26 -2 49.5t-19.5 41t-34 28t-47.5 10.5q-42 0 -75 -27t-39 -70l-32 -231h-92l27 199q4 25 -2 48.5t-19.5 41.5t-34.5 28.5t-47 10.5q-42 0 -75 -26
t-39 -69l-32 -233h-94l56 402h94l-5 -33q25 24 52.5 37t59.5 13z" />
    <glyph glyph-name="n" unicode="n" 
d="M483 200q-8 -51 -15 -100t-14 -100h-96l28 201q3 26 -2.5 49.5t-19.5 41t-34.5 28t-47.5 10.5q-21 0 -40 -7t-34.5 -19.5t-26 -30.5t-13.5 -39l-32 -234h-93l56 404h93l-4 -33q55 50 126 50q46 0 80.5 -18t56 -48.5t30 -70.5t2.5 -84z" />
    <glyph glyph-name="o" unicode="o" horiz-adv-x="501" 
d="M407 219q4 25 -3 48t-21.5 40t-36 27t-46.5 10q-26 0 -50 -10t-43.5 -27t-33 -40t-17.5 -48q-3 -26 3.5 -49t21.5 -40t36.5 -27t47.5 -10q25 0 49.5 10t44 27.5t32.5 40t16 48.5zM313 437q45 0 82 -17t62.5 -47t37 -69.5t5.5 -84.5t-29 -85t-56.5 -69.5t-75.5 -47
t-87 -17.5t-83 17t-63.5 47t-37 70t-5.5 85t29 84.5t57 69.5t76.5 47t87.5 17z" />
    <glyph glyph-name="p" unicode="p" 
d="M393 201q3 25 -3 48.5t-20 42t-34.5 29.5t-46.5 11q-28 0 -51 -11t-40.5 -29t-28.5 -41.5t-14 -49.5q-4 -25 0 -48.5t16 -42t32 -29.5t47 -11t51 11t43.5 29t32 41.5t16.5 49.5zM303 420q46 0 82.5 -17.5t61 -47t35 -69.5t4.5 -85t-28.5 -85t-55.5 -69.5t-74.5 -46.5
t-87.5 -17q-34 0 -56.5 13.5t-42.5 37.5l-37 -264h-90l90 636h90l-6 -38q26 24 53.5 38t61.5 14z" />
    <glyph glyph-name="q" unicode="q" horiz-adv-x="505" 
d="M272 69q27 0 50 11t40 29.5t27.5 42t14.5 48.5q3 25 -1 49t-15.5 42.5t-31 29.5t-46.5 11q-29 0 -53.5 -11.5t-43.5 -30t-31 -43.5t-16 -52q-4 -26 2.5 -49t21 -40t35.5 -27t47 -10zM423 -232h-89l37 265q-26 -24 -52.5 -37.5t-60.5 -13.5q-46 0 -82.5 17t-61.5 46.5
t-35.5 69.5t-4.5 85t27.5 85t54.5 69.5t74.5 47t87.5 17.5q34 0 57.5 -14t42.5 -38l5 38h89z" />
    <glyph glyph-name="r" unicode="r" horiz-adv-x="340" 
d="M187 360q39 24 81.5 34.5t84.5 10.5l-12 -91q-29 0 -59 -8t-54.5 -23.5t-42 -39.5t-21.5 -57l-26 -185l-1 -1q-23 0 -45 0.5t-45 0.5l56 402h91z" />
    <glyph glyph-name="s" unicode="s" horiz-adv-x="384" 
d="M238 337q-42 0 -48 -41q-2 -11 11 -20t33 -18.5t43 -20.5t42 -26t30 -35.5t7 -49.5q-5 -34 -21.5 -58t-40 -39t-52.5 -22t-59 -7q-38 0 -72.5 15t-61.5 39l55 75q17 -19 47.5 -32t58.5 -13q15 0 29 6.5t17 24.5q2 16 -10.5 27.5t-32 22t-42.5 21.5t-42 25.5t-30 35
t-7 49.5t20 51.5t38.5 37.5t49.5 23t53 8q22 0 40 -3.5t33 -11t29 -18.5t28 -26l-56 -62q-16 17 -39.5 29.5t-49.5 12.5z" />
    <glyph glyph-name="t" unicode="t" horiz-adv-x="309" 
d="M270 478h74l-13 -93h-74l-54 -385h-94l54 385h-77l13 93h77l27 194h94l-27 -194v0z" />
    <glyph glyph-name="u" unicode="u" 
d="M97 404h94l-28 -202q-4 -27 1.5 -51t19.5 -41.5t35 -28t49 -10.5q45 0 78 27t39 72l33 234h90l-56 -404h-90l4 35q-24 -24 -52 -37.5t-60 -13.5q-44 0 -81 17.5t-62 47.5t-36.5 69.5t-5.5 83.5z" />
    <glyph glyph-name="v" unicode="v" horiz-adv-x="459" 
d="M487 405l-258 -405l-147 405h102l75 -198l127 198h101v0z" />
    <glyph glyph-name="w" unicode="w" horiz-adv-x="672" 
d="M597 403h104l-254 -403l-81 203l-140 -203l-142 403h106l68 -196l133 189v2v-1l1 1v-2l83 -188l122 195v0z" />
    <glyph glyph-name="x" unicode="x" horiz-adv-x="429" 
d="M342 403h110l-152 -195l99 -208h-110l-57 118l-89 -118h-110l157 208l-99 195h110l55 -116l86 116v0z" />
    <glyph glyph-name="y" unicode="y" horiz-adv-x="499" 
d="M453 -13q-6 -41 -28 -76t-54 -60.5t-71 -40t-78 -14.5q-66 0 -111 35.5t-59 97.5l84 34q8 -36 33.5 -58t63.5 -22q22 0 44 8t40 22.5t30.5 34t15.5 42.5l5 36q-53 -36 -110 -36q-44 0 -81 17.5t-62 47.5t-36.5 69.5t-5.5 83.5l29 207h94l-29 -207q-4 -26 2 -49.5
t19.5 -41.5t34 -29t47.5 -11q34 0 56 8t35.5 24t20.5 39.5t11 53.5l30 213h90z" />
    <glyph glyph-name="z" unicode="z" horiz-adv-x="426" 
d="M396 84l-11 -83h-349l230 317h-176l12 86h324l-233 -320h203v0z" />
    <glyph glyph-name="D" unicode="D" horiz-adv-x="617" 
d="M527 341q7 48 -1 90.5t-30.5 75t-59 52t-85.5 21.5q-32 2 -65 1.5t-65 -0.5l-68 -485h130q12 0 25.5 2.5t25.5 6.5q41 11 74 34.5t58 55t40.5 69.5t20.5 77zM626 337q-11 -79 -45 -142t-86 -106.5t-119 -66.5t-145 -23q-47 0 -93 0.5t-93 0.5l95 677q47 0 93.5 0.5
t93.5 0.5q78 0 138.5 -24t99.5 -68t55.5 -107.5t5.5 -141.5z" />
    <glyph glyph-name="exclam" unicode="!" horiz-adv-x="182" 
d="M92 0q-29 0 -40 12.5t-7 41.5q5 29 19 41.5t43 12.5t40 -12.5t6 -41.5q-4 -29 -18 -41.5t-43 -12.5zM65 138l70 498h93l-70 -498h-93z" />
    <glyph glyph-name="zero" unicode="0" horiz-adv-x="507" 
d="M264 90q41 0 68 25.5t44 62t25.5 76.5t12.5 69q4 28 7 67t-3.5 74.5t-25.5 60t-59 24.5q-41 0 -68 -24.5t-44 -59.5t-25.5 -74t-12.5 -69q-4 -28 -6.5 -68t3.5 -76.5t25.5 -62t58.5 -25.5zM515 316q-7 -52 -25 -107.5t-49 -102t-77 -76.5t-110 -30q-66 0 -104 30.5
t-55.5 77.5t-19 104.5t6.5 110.5q7 53 25 109t49 102t77 75.5t111 29.5q67 0 105 -30t55 -77.5t17.5 -104.5t-6.5 -111z" />
    <glyph glyph-name="one" unicode="1" horiz-adv-x="235" 
d="M194 0h-90l77 552h-60l14 87h148l-89 -639v0z" />
    <glyph glyph-name="two" unicode="2" horiz-adv-x="494" 
d="M467 82l-11 -82h-423l275 281q37 38 69.5 82t40.5 95q6 45 -21.5 69t-69.5 24q-45 0 -75.5 -26t-41.5 -71h-99q7 46 28.5 80.5t53.5 58t71.5 35t82.5 11.5q41 0 75.5 -10.5t58.5 -32.5t35 -54.5t5 -76.5q-8 -52 -40.5 -104.5t-76 -102t-91.5 -94.5t-86 -82h240z" />
    <glyph glyph-name="three" unicode="3" horiz-adv-x="481" 
d="M162 180q-7 -47 17.5 -70.5t69.5 -23.5q49 0 82 25t41 76q4 32 -4 52t-25.5 31.5t-42 15.5t-51.5 4l14 85q24 -2 46.5 3.5t41 18t31 31.5t16.5 45q3 19 -4.5 34t-20.5 25.5t-30 15.5t-34 5q-39 0 -68.5 -19t-37.5 -61h-92q17 84 74.5 124t137.5 40q36 0 69.5 -10.5
t58.5 -30.5t37.5 -50.5t6.5 -70.5q-6 -43 -35 -81.5t-70 -58.5q27 -9 44 -24.5t25.5 -36.5t10 -46t-2.5 -53q-6 -45 -28 -78t-54 -54.5t-71 -32t-80 -10.5t-74 12.5t-56 36t-34 56.5t-6 75h98z" />
    <glyph glyph-name="four" unicode="4" horiz-adv-x="487" 
d="M481 227l-13 -96l-50 -1l-18 -130h-93l18 130l-262 -1l187 464l87 -17l-131 -351l132 1l58 411h93l-58 -411l50 1v0z" />
    <glyph glyph-name="five" unicode="5" horiz-adv-x="504" 
d="M134 155q20 -33 48.5 -50t70.5 -17q60 0 99.5 35.5t47.5 95.5q9 60 -26 91t-92 31q-33 0 -67.5 -11t-60.5 -35l-44 10l48 333h349l-11 -82h-261l-22 -149q25 9 51 14.5t52 5.5q44 0 80 -15.5t60.5 -43t35.5 -65t5 -82.5q-8 -53 -30.5 -94t-57 -69t-79 -43t-95.5 -15
q-59 0 -102.5 24t-72.5 70z" />
    <glyph glyph-name="six" unicode="6" horiz-adv-x="507" 
d="M252 393q39 15 82 15t75.5 -15t53.5 -41.5t29.5 -62.5t2.5 -78q-7 -50 -28.5 -89t-54.5 -66t-76 -41.5t-91 -14.5q-46 0 -82.5 14.5t-60 41t-33.5 64t-4 84.5q7 46 40 106t76.5 120.5t90 115.5t79.5 93h109zM257 69q30 0 56.5 10t47 28.5t34 43.5t17.5 55
q9 60 -23.5 97.5t-92.5 37.5q-29 0 -53.5 -11.5t-43.5 -30.5t-31 -44t-16 -52q-4 -28 1 -52.5t18.5 -42.5t35 -28.5t50.5 -10.5z" />
    <glyph glyph-name="seven" unicode="7" horiz-adv-x="418" 
d="M170 0h-102l278 548h-239l12 90h373l-322 -638v0z" />
    <glyph glyph-name="eight" unicode="8" horiz-adv-x="486" 
d="M254 80q51 0 84.5 27.5t41.5 79.5q8 54 -18.5 79.5t-77.5 25.5t-84 -26.5t-40 -78.5q-8 -52 17.5 -79.5t76.5 -27.5zM321 556q-40 0 -69 -22t-34 -64q-6 -42 14 -64.5t62 -22.5t70.5 22t34.5 65q5 42 -15.5 64t-62.5 22zM63 181q8 54 36.5 95.5t82.5 62.5
q-37 20 -50.5 53.5t-6.5 77.5q5 40 24 71t47.5 52.5t63.5 33t73 11.5q40 0 72.5 -11t54.5 -32t32 -53t4 -74t-28.5 -76.5t-65.5 -52.5q42 -22 61.5 -64.5t12.5 -92.5q-7 -47 -27.5 -81.5t-51.5 -57t-70 -33t-83 -10.5q-43 0 -79 11t-61 33t-36 56t-5 81z" />
    <glyph glyph-name="nine" unicode="9" horiz-adv-x="507" 
d="M343 246q-41 -15 -83 -15q-43 0 -75.5 15t-53.5 41.5t-29 62.5t-2 78q7 49 28.5 88.5t54.5 66.5t76 41.5t91 14.5q46 0 82.5 -14.5t60 -41t33.5 -64.5t4 -84q-7 -46 -40 -106t-77 -120.5t-90 -116t-79 -92.5h-109zM336 558q-27 0 -51.5 -9.5t-43 -26t-31 -39.5t-16.5 -50
t2 -49.5t20 -39t35.5 -25.5t48.5 -9t49 10.5t39 27.5t28 40t15 48q3 25 -1.5 47.5t-16.5 39t-31.5 26t-45.5 9.5z" />
    <glyph glyph-name="colon" unicode=":" horiz-adv-x="186" 
d="M166 531q-29 0 -40 12.5t-6 41.5q4 29 18 41t43 12t40 -12t7 -41q-5 -29 -19 -41.5t-43 -12.5zM92 0q-29 0 -40 12.5t-7 41.5q5 29 19 41t43 12t40 -12t6 -41q-4 -29 -18 -41.5t-43 -12.5z" />
    <glyph glyph-name="semicolon" unicode=";" horiz-adv-x="195" 
d="M172 529q-29 0 -40 12.5t-7 41.5q5 29 19 41t43 12t40 -12t6 -41q-4 -29 -18 -41.5t-43 -12.5zM160 51q-5 -38 -24.5 -71t-49.5 -61l-43 17q16 15 20 30t10 34q-16 6 -19.5 20.5t-1.5 30.5q4 29 17.5 41t42.5 12t40.5 -12t7.5 -41z" />
    <glyph glyph-name="question" unicode="?" horiz-adv-x="476" 
d="M315 540q-37 0 -72.5 -14.5t-58.5 -49.5q-15 14 -30.5 28t-32.5 27q36 50 90.5 75.5t111.5 25.5q45 0 80.5 -12t58.5 -35.5t32.5 -59t3.5 -82.5q-6 -39 -20.5 -67.5t-33.5 -51t-41 -41.5t-41.5 -39t-35 -44t-21.5 -55h-95q11 36 26.5 71t40.5 65q18 22 37.5 39t37 35
t30.5 39t17 51q13 95 -84 95zM241 0q-29 0 -40 12.5t-7 41.5q5 29 19 41t43 12t40 -12t6 -41q-4 -29 -18 -41.5t-43 -12.5z" />
    <glyph glyph-name="period" unicode="." horiz-adv-x="189" 
d="M92 0q-29 0 -40 12.5t-7 41.5q5 29 19 41t43 12t40 -12t6 -41q-4 -29 -18 -41.5t-43 -12.5z" />
    <glyph glyph-name="comma" unicode="," horiz-adv-x="181" 
d="M153 51q-5 -38 -24.5 -71t-49.5 -61l-43 17q16 15 20 30t10 34q-16 6 -19.5 20.5t-1.5 30.5q4 29 17.5 41t42.5 12t40.5 -12t7.5 -41z" />
    <glyph glyph-name="B" unicode="B" horiz-adv-x="569" 
d="M309 89q23 0 48 4.5t46 16t36 30t19 46.5q5 35 -0.5 57.5t-20.5 35.5t-39.5 18t-56.5 5h-160l-30 -213h158zM504 485q4 29 -5.5 49t-27 32t-41 17.5t-48.5 5.5h-161l-29 -208h160q27 0 52.5 4t46 15.5t34.5 32t19 52.5zM592 482q-7 -51 -34.5 -87t-78.5 -53
q48 -20 66.5 -55.5t10.5 -89.5q-8 -56 -31 -94t-57.5 -61t-78.5 -32.5t-95 -9.5h-249l98 677h237q48 0 90 -10t72 -33t44 -60.5t6 -91.5z" />
    <glyph glyph-name="C" unicode="C" horiz-adv-x="621" 
d="M610 93q-54 -45 -115.5 -69t-127.5 -24q-71 0 -129 26t-97.5 72t-57.5 107.5t-8 132.5t45.5 133t88 107.5t118 72t136.5 26.5q66 0 120.5 -24t95.5 -69l-77 -65q-29 31 -68.5 47.5t-84.5 16.5q-51 0 -98.5 -19t-85.5 -52.5t-64 -78t-33 -95.5t6 -95.5t42 -78t71 -52.5
t93 -19q45 0 89.5 17t82.5 48z" />
    <glyph glyph-name="A" unicode="A" horiz-adv-x="605" 
d="M254 243h160l-54 193zM17 0l377 680l191 -680h-103l-43 152h-237l-85 -152h-100z" />
  </font>
</defs>
</svg>
